<mxfile host="65bd71144e">
    <diagram id="OR5vb3LMb8spYguMCVyQ" name="Page-1">
        <mxGraphModel dx="1295" dy="1417" grid="0" gridSize="9" guides="1" tooltips="1" connect="1" arrows="1" fold="1" page="0" pageScale="1" pageWidth="850" pageHeight="1100" background="#ffffff" math="0" shadow="0">
            <root>
                <mxCell id="0"/>
                <mxCell id="1" parent="0"/>
                <mxCell id="28" value="" style="fillColor=#10739E;strokeColor=none;opacity=30;" parent="1" vertex="1">
                    <mxGeometry x="787" y="-95" width="1144" height="100" as="geometry"/>
                </mxCell>
                <mxCell id="43" value="HỆ THỐNG QUẢN LÝ SIÊU THỊ" style="rounded=1;fillColor=#23445D;gradientColor=none;strokeColor=none;fontColor=#FFFFFF;fontStyle=1;fontFamily=Tahoma;fontSize=22;" parent="1" vertex="1">
                    <mxGeometry x="1157" y="-281" width="452" height="125" as="geometry"/>
                </mxCell>
                <mxCell id="140" style="edgeStyle=elbowEdgeStyle;rounded=0;html=1;entryX=0;entryY=0.5;entryDx=0;entryDy=0;strokeColor=#000000;strokeWidth=2;fontSize=18;" edge="1" parent="1" source="46" target="72">
                    <mxGeometry relative="1" as="geometry">
                        <Array as="points">
                            <mxPoint x="1690" y="44"/>
                            <mxPoint x="1694" y="16"/>
                        </Array>
                    </mxGeometry>
                </mxCell>
                <mxCell id="46" value="3. Quản lý hóa đơn" style="rounded=1;fillColor=#23445D;gradientColor=none;strokeColor=none;fontColor=#FFFFFF;fontStyle=1;fontFamily=Tahoma;fontSize=18;fillStyle=auto;" parent="1" vertex="1">
                    <mxGeometry x="1659" y="-85" width="240" height="80" as="geometry"/>
                </mxCell>
                <mxCell id="159" style="edgeStyle=elbowEdgeStyle;rounded=0;html=1;entryX=0;entryY=0.5;entryDx=0;entryDy=0;strokeColor=#000000;strokeWidth=2;fontSize=18;" edge="1" parent="1" source="47" target="152">
                    <mxGeometry relative="1" as="geometry">
                        <Array as="points">
                            <mxPoint x="1290" y="39"/>
                            <mxPoint x="1290" y="24"/>
                            <mxPoint x="1290" y="10"/>
                        </Array>
                    </mxGeometry>
                </mxCell>
                <mxCell id="47" value="2. Quản lý khách hàng" style="rounded=1;fillColor=#23445D;gradientColor=none;strokeColor=none;fontColor=#FFFFFF;fontStyle=1;fontFamily=Tahoma;fontSize=18;fillStyle=auto;" parent="1" vertex="1">
                    <mxGeometry x="1266" y="-85" width="240" height="80" as="geometry"/>
                </mxCell>
                <mxCell id="166" style="edgeStyle=orthogonalEdgeStyle;rounded=0;html=1;entryX=0;entryY=0.5;entryDx=0;entryDy=0;strokeColor=#000000;strokeWidth=2;fontSize=18;exitX=0.098;exitY=1.001;exitDx=0;exitDy=0;exitPerimeter=0;" edge="1" parent="1" source="48" target="155">
                    <mxGeometry relative="1" as="geometry"/>
                </mxCell>
                <mxCell id="48" value="1. Quản lý mặt hàng" style="rounded=1;fillColor=#23445D;gradientColor=none;strokeColor=none;fontColor=#FFFFFF;fontStyle=1;fontFamily=Tahoma;fontSize=18;fillStyle=auto;" parent="1" vertex="1">
                    <mxGeometry x="813" y="-85" width="240" height="80" as="geometry"/>
                </mxCell>
                <mxCell id="72" value="    3.1.  Tính toán hóa đơn" style="rounded=1;fillColor=#23445D;gradientColor=none;strokeColor=none;fontColor=#FFFFFF;fontStyle=1;fontFamily=Tahoma;fontSize=14;align=left;" parent="1" vertex="1">
                    <mxGeometry x="1714" y="34" width="220" height="60" as="geometry"/>
                </mxCell>
                <mxCell id="90" value="" style="edgeStyle=elbowEdgeStyle;elbow=vertical;strokeWidth=2;rounded=0;strokeColor=#000000;entryX=0.5;entryY=0;entryDx=0;entryDy=0;" parent="1" source="43" target="47" edge="1">
                    <mxGeometry x="1073" y="-196.00000000000003" width="100" height="100" as="geometry">
                        <mxPoint x="1588" y="-146.00000000000003" as="sourcePoint"/>
                        <mxPoint x="2193" y="-76.00000000000003" as="targetPoint"/>
                        <Array as="points">
                            <mxPoint x="1386" y="-110"/>
                        </Array>
                    </mxGeometry>
                </mxCell>
                <mxCell id="105" value="" style="edgeStyle=elbowEdgeStyle;elbow=horizontal;strokeWidth=2;rounded=0" parent="1" edge="1">
                    <mxGeometry x="703" y="-286" width="100" height="100" as="geometry">
                        <mxPoint x="1493" y="64" as="sourcePoint"/>
                        <mxPoint x="1493" y="154" as="targetPoint"/>
                        <Array as="points">
                            <mxPoint x="1473" y="114"/>
                        </Array>
                    </mxGeometry>
                </mxCell>
                <mxCell id="144" value="3.2.  Tính toán doanh thu" style="rounded=1;fillColor=#23445D;gradientColor=none;strokeColor=none;fontColor=#FFFFFF;fontStyle=1;fontFamily=Tahoma;fontSize=14" vertex="1" parent="1">
                    <mxGeometry x="1714" y="124" width="220" height="60" as="geometry"/>
                </mxCell>
                <mxCell id="146" style="edgeStyle=elbowEdgeStyle;rounded=0;html=1;entryX=0;entryY=0.5;entryDx=0;entryDy=0;strokeColor=#000000;strokeWidth=2;fontSize=18;exitX=0.129;exitY=0.997;exitDx=0;exitDy=0;exitPerimeter=0;" edge="1" parent="1" source="46" target="144">
                    <mxGeometry relative="1" as="geometry">
                        <mxPoint x="1703" y="3" as="sourcePoint"/>
                        <mxPoint x="1723" y="73" as="targetPoint"/>
                        <Array as="points">
                            <mxPoint x="1690" y="29"/>
                            <mxPoint x="1694" y="47"/>
                            <mxPoint x="1692" y="32"/>
                            <mxPoint x="1698" y="17"/>
                            <mxPoint x="1703" y="25"/>
                        </Array>
                    </mxGeometry>
                </mxCell>
                <mxCell id="148" value="    3.3.  Tìm kiếm hóa đơn" style="rounded=1;fillColor=#23445D;gradientColor=none;strokeColor=none;fontColor=#FFFFFF;fontStyle=1;fontFamily=Tahoma;fontSize=14;align=left;" vertex="1" parent="1">
                    <mxGeometry x="1714" y="214" width="220" height="60" as="geometry"/>
                </mxCell>
                <mxCell id="149" style="edgeStyle=elbowEdgeStyle;rounded=0;html=1;entryX=0;entryY=0.5;entryDx=0;entryDy=0;strokeColor=#000000;strokeWidth=2;fontSize=18;exitX=0.129;exitY=0.997;exitDx=0;exitDy=0;exitPerimeter=0;" edge="1" parent="1" source="46" target="148">
                    <mxGeometry relative="1" as="geometry">
                        <mxPoint x="1703" y="3" as="sourcePoint"/>
                        <mxPoint x="1723" y="163" as="targetPoint"/>
                        <Array as="points">
                            <mxPoint x="1690" y="27"/>
                            <mxPoint x="1694" y="135"/>
                            <mxPoint x="1703" y="56"/>
                            <mxPoint x="1701" y="41"/>
                            <mxPoint x="1707" y="26"/>
                            <mxPoint x="1712" y="34"/>
                        </Array>
                    </mxGeometry>
                </mxCell>
                <mxCell id="152" value="    2.1. Thêm khách hàng mới" style="rounded=1;fillColor=#23445D;gradientColor=none;strokeColor=none;fontColor=#FFFFFF;fontStyle=1;fontFamily=Tahoma;fontSize=14;align=left;" vertex="1" parent="1">
                    <mxGeometry x="1332" y="34" width="220" height="60" as="geometry"/>
                </mxCell>
                <mxCell id="153" value="2.2. Tìm kiếm khách hàng" style="rounded=1;fillColor=#23445D;gradientColor=none;strokeColor=none;fontColor=#FFFFFF;fontStyle=1;fontFamily=Tahoma;fontSize=14" vertex="1" parent="1">
                    <mxGeometry x="1332" y="124" width="220" height="60" as="geometry"/>
                </mxCell>
                <mxCell id="154" value="    2.3. Chỉnh sửa thông tin&#10;    của khách hàng" style="rounded=1;fillColor=#23445D;gradientColor=none;strokeColor=none;fontColor=#FFFFFF;fontStyle=1;fontFamily=Tahoma;fontSize=14;align=left;" vertex="1" parent="1">
                    <mxGeometry x="1332" y="214" width="220" height="60" as="geometry"/>
                </mxCell>
                <mxCell id="155" value="    1.1. Thêm mặt hàng" style="rounded=1;fillColor=#23445D;gradientColor=none;strokeColor=none;fontColor=#FFFFFF;fontStyle=1;fontFamily=Tahoma;fontSize=14;align=left;" vertex="1" parent="1">
                    <mxGeometry x="871" y="37" width="220" height="60" as="geometry"/>
                </mxCell>
                <mxCell id="156" value="    1.2. Tìm kiếm mặt hàng " style="rounded=1;fillColor=#23445D;gradientColor=none;strokeColor=none;fontColor=#FFFFFF;fontStyle=1;fontFamily=Tahoma;fontSize=14;align=left;" vertex="1" parent="1">
                    <mxGeometry x="871" y="127" width="220" height="60" as="geometry"/>
                </mxCell>
                <mxCell id="157" value="    1.3. Quản lý mặt hàng&#10;    hết hạn sử dụng" style="rounded=1;fillColor=#23445D;gradientColor=none;strokeColor=none;fontColor=#FFFFFF;fontStyle=1;fontFamily=Tahoma;fontSize=14;align=left;" vertex="1" parent="1">
                    <mxGeometry x="871" y="217" width="220" height="60" as="geometry"/>
                </mxCell>
                <mxCell id="160" style="edgeStyle=elbowEdgeStyle;rounded=0;html=1;entryX=0;entryY=0.5;entryDx=0;entryDy=0;strokeColor=#000000;strokeWidth=2;fontSize=18;exitX=0.101;exitY=1;exitDx=0;exitDy=0;exitPerimeter=0;" edge="1" parent="1" source="47" target="153">
                    <mxGeometry relative="1" as="geometry">
                        <mxPoint x="1291" y="-5" as="sourcePoint"/>
                        <mxPoint x="1341" y="73" as="targetPoint"/>
                        <Array as="points">
                            <mxPoint x="1290" y="30"/>
                            <mxPoint x="1291" y="52"/>
                            <mxPoint x="1289" y="42"/>
                            <mxPoint x="1290" y="37"/>
                            <mxPoint x="1289" y="103"/>
                            <mxPoint x="1290" y="85"/>
                            <mxPoint x="1291" y="32"/>
                            <mxPoint x="1299" y="19"/>
                        </Array>
                    </mxGeometry>
                </mxCell>
                <mxCell id="161" style="edgeStyle=elbowEdgeStyle;rounded=0;html=1;entryX=0;entryY=0.5;entryDx=0;entryDy=0;strokeColor=#000000;strokeWidth=2;fontSize=18;exitX=0.101;exitY=1;exitDx=0;exitDy=0;exitPerimeter=0;" edge="1" parent="1" source="47" target="154">
                    <mxGeometry relative="1" as="geometry">
                        <mxPoint x="1299.3600000000001" y="2.9200000000000728" as="sourcePoint"/>
                        <mxPoint x="1341" y="163" as="targetPoint"/>
                        <Array as="points">
                            <mxPoint x="1290" y="25"/>
                            <mxPoint x="1299" y="39"/>
                            <mxPoint x="1300" y="61"/>
                            <mxPoint x="1298" y="51"/>
                            <mxPoint x="1299" y="46"/>
                            <mxPoint x="1298" y="112"/>
                            <mxPoint x="1299" y="94"/>
                            <mxPoint x="1300" y="41"/>
                            <mxPoint x="1308" y="28"/>
                        </Array>
                    </mxGeometry>
                </mxCell>
                <mxCell id="162" value="    2.4. Xóa khách hàng" style="rounded=1;fillColor=#23445D;gradientColor=none;strokeColor=none;fontColor=#FFFFFF;fontStyle=1;fontFamily=Tahoma;fontSize=14;align=left;" vertex="1" parent="1">
                    <mxGeometry x="1332" y="304" width="220" height="60" as="geometry"/>
                </mxCell>
                <mxCell id="163" style="edgeStyle=elbowEdgeStyle;rounded=0;html=1;entryX=0;entryY=0.5;entryDx=0;entryDy=0;strokeColor=#000000;strokeWidth=2;fontSize=18;exitX=0.101;exitY=0.996;exitDx=0;exitDy=0;exitPerimeter=0;" edge="1" parent="1" source="47" target="162">
                    <mxGeometry relative="1" as="geometry">
                        <mxPoint x="1299.36" y="2.839999999999918" as="sourcePoint"/>
                        <mxPoint x="1341" y="253" as="targetPoint"/>
                        <Array as="points">
                            <mxPoint x="1290" y="12"/>
                            <mxPoint x="1286" y="176"/>
                            <mxPoint x="1299" y="34"/>
                            <mxPoint x="1308" y="48"/>
                            <mxPoint x="1309" y="70"/>
                            <mxPoint x="1307" y="60"/>
                            <mxPoint x="1308" y="55"/>
                            <mxPoint x="1307" y="121"/>
                            <mxPoint x="1308" y="103"/>
                            <mxPoint x="1309" y="50"/>
                            <mxPoint x="1317" y="37"/>
                        </Array>
                    </mxGeometry>
                </mxCell>
                <mxCell id="135" style="edgeStyle=elbowEdgeStyle;html=1;strokeColor=#000000;elbow=vertical;rounded=0;strokeWidth=2;exitX=0.507;exitY=1.004;exitDx=0;exitDy=0;exitPerimeter=0;" edge="1" parent="1" source="43" target="46">
                    <mxGeometry relative="1" as="geometry">
                        <mxPoint x="1383" y="-158" as="sourcePoint"/>
                        <Array as="points">
                            <mxPoint x="1404" y="-135"/>
                            <mxPoint x="1413" y="-135"/>
                            <mxPoint x="1413" y="-135"/>
                            <mxPoint x="1548" y="-135"/>
                        </Array>
                    </mxGeometry>
                </mxCell>
                <mxCell id="91" value="" style="edgeStyle=elbowEdgeStyle;elbow=vertical;strokeWidth=2;rounded=0;labelBorderColor=none;strokeColor=#000000;" parent="1" source="43" target="48" edge="1">
                    <mxGeometry x="703" y="-215.41666666666666" width="100" height="54.166666666666664" as="geometry">
                        <mxPoint x="703" y="-161.25000000000003" as="sourcePoint"/>
                        <mxPoint x="803" y="-215.41666666666666" as="targetPoint"/>
                        <Array as="points">
                            <mxPoint x="1386" y="-135"/>
                            <mxPoint x="1386" y="-135"/>
                            <mxPoint x="1386" y="-135"/>
                            <mxPoint x="1359" y="-135"/>
                            <mxPoint x="1386" y="-135"/>
                        </Array>
                    </mxGeometry>
                </mxCell>
                <mxCell id="168" style="edgeStyle=orthogonalEdgeStyle;rounded=0;html=1;entryX=0;entryY=0.5;entryDx=0;entryDy=0;strokeColor=#000000;strokeWidth=2;fontSize=18;exitX=0.098;exitY=1;exitDx=0;exitDy=0;exitPerimeter=0;" edge="1" parent="1" source="48" target="156">
                    <mxGeometry relative="1" as="geometry">
                        <mxPoint x="845.52" y="4.079999999999927" as="sourcePoint"/>
                        <mxPoint x="880" y="76" as="targetPoint"/>
                        <Array as="points">
                            <mxPoint x="837" y="-4"/>
                            <mxPoint x="836" y="-4"/>
                            <mxPoint x="836" y="157"/>
                        </Array>
                    </mxGeometry>
                </mxCell>
                <mxCell id="169" style="edgeStyle=orthogonalEdgeStyle;rounded=0;html=1;entryX=0;entryY=0.5;entryDx=0;entryDy=0;strokeColor=#000000;strokeWidth=2;fontSize=18;exitX=0.097;exitY=1;exitDx=0;exitDy=0;exitPerimeter=0;" edge="1" parent="1" source="48" target="157">
                    <mxGeometry relative="1" as="geometry">
                        <mxPoint x="854.52" y="13.079999999999927" as="sourcePoint"/>
                        <mxPoint x="889" y="85" as="targetPoint"/>
                        <Array as="points">
                            <mxPoint x="836" y="-1"/>
                            <mxPoint x="836" y="-1"/>
                            <mxPoint x="836" y="247"/>
                        </Array>
                    </mxGeometry>
                </mxCell>
                <mxCell id="170" value="    2.5. Hiển thị danh sách&#10;    khách hàng" style="rounded=1;fillColor=#23445D;gradientColor=none;strokeColor=none;fontColor=#FFFFFF;fontStyle=1;fontFamily=Tahoma;fontSize=14;align=left;" vertex="1" parent="1">
                    <mxGeometry x="1332" y="394" width="220" height="60" as="geometry"/>
                </mxCell>
                <mxCell id="171" style="edgeStyle=elbowEdgeStyle;rounded=0;html=1;entryX=0;entryY=0.5;entryDx=0;entryDy=0;strokeColor=#000000;strokeWidth=2;fontSize=18;exitX=0.102;exitY=1.004;exitDx=0;exitDy=0;exitPerimeter=0;" edge="1" parent="1" source="47" target="170">
                    <mxGeometry relative="1" as="geometry">
                        <mxPoint x="1291" y="-5" as="sourcePoint"/>
                        <mxPoint x="1341" y="343" as="targetPoint"/>
                        <Array as="points">
                            <mxPoint x="1290" y="17"/>
                            <mxPoint x="1289" y="379"/>
                            <mxPoint x="1299" y="21"/>
                            <mxPoint x="1295" y="185"/>
                            <mxPoint x="1308" y="43"/>
                            <mxPoint x="1317" y="57"/>
                            <mxPoint x="1318" y="79"/>
                            <mxPoint x="1316" y="69"/>
                            <mxPoint x="1317" y="64"/>
                            <mxPoint x="1316" y="130"/>
                            <mxPoint x="1317" y="112"/>
                            <mxPoint x="1318" y="59"/>
                            <mxPoint x="1326" y="46"/>
                        </Array>
                    </mxGeometry>
                </mxCell>
                <mxCell id="172" value="    3.4.  Hiển thị danh sách&#10;    hóa đơn của khách hàng" style="rounded=1;fillColor=#23445D;gradientColor=none;strokeColor=none;fontColor=#FFFFFF;fontStyle=1;fontFamily=Tahoma;fontSize=14;align=left;" vertex="1" parent="1">
                    <mxGeometry x="1714" y="304" width="220" height="60" as="geometry"/>
                </mxCell>
                <mxCell id="173" style="edgeStyle=elbowEdgeStyle;rounded=0;html=1;entryX=0;entryY=0.5;entryDx=0;entryDy=0;strokeColor=#000000;strokeWidth=2;fontSize=18;" edge="1" parent="1" target="172">
                    <mxGeometry relative="1" as="geometry">
                        <mxPoint x="1690" y="-5" as="sourcePoint"/>
                        <mxPoint x="1723" y="253" as="targetPoint"/>
                        <Array as="points">
                            <mxPoint x="1690" y="14"/>
                            <mxPoint x="1699" y="36"/>
                            <mxPoint x="1703" y="144"/>
                            <mxPoint x="1712" y="65"/>
                            <mxPoint x="1710" y="50"/>
                            <mxPoint x="1716" y="35"/>
                            <mxPoint x="1721" y="43"/>
                        </Array>
                    </mxGeometry>
                </mxCell>
            </root>
        </mxGraphModel>
    </diagram>
</mxfile>